<svg width="18" height="10" viewBox="0 0 18 10" fill="none" xmlns="http://www.w3.org/2000/svg">
<path d="M0.700039 2.11L8.29004 9.7C8.68004 10.09 9.31004 10.09 9.70004 9.7L16 3.4V7C16 7.55 16.45 8 17 8C17.55 8 18 7.55 18 7V1C18 0.45 17.55 0 17 0H11C10.45 0 10 0.45 10 1C10 1.55 10.45 2 11 2H14.59L9.00004 7.59L2.11004 0.7C2.01753 0.607296 1.90764 0.533749 1.78666 0.483567C1.66569 0.433386 1.53601 0.407556 1.40504 0.407556C1.27407 0.407556 1.14439 0.433386 1.02341 0.483567C0.902441 0.533749 0.792553 0.607296 0.700039 0.7C0.320039 1.09 0.320039 1.73 0.700039 2.11Z" fill="#FF2222"/>
</svg>
