<svg width="15" height="15" viewBox="0 0 15 15" fill="none"
     xmlns="http://www.w3.org/2000/svg">
    <path
            d="M14.3426 7.5C14.3426 9.48912 13.5871 11.3968 12.2422 12.8033C10.8973 14.2098 9.07327 15 7.17131 15C5.26936 15 3.44531 14.2098 2.10043 12.8033C0.755547 11.3968 0 9.48912 0 7.5C0 5.51088 0.755547 3.60322 2.10043 2.1967C3.44531 0.790176 5.26936 0 7.17131 0C9.07327 0 10.8973 0.790176 12.2422 2.1967C13.5871 3.60322 14.3426 5.51088 14.3426 7.5ZM7.61952 4.21875C7.61952 4.09443 7.5723 3.9752 7.48825 3.88729C7.40419 3.79939 7.29019 3.75 7.17131 3.75C7.05244 3.75 6.93844 3.79939 6.85438 3.88729C6.77033 3.9752 6.72311 4.09443 6.72311 4.21875V7.03125H4.03386C3.91499 7.03125 3.80099 7.08064 3.71693 7.16854C3.63288 7.25645 3.58566 7.37568 3.58566 7.5C3.58566 7.62432 3.63288 7.74355 3.71693 7.83146C3.80099 7.91936 3.91499 7.96875 4.03386 7.96875H6.72311V10.7812C6.72311 10.9056 6.77033 11.0248 6.85438 11.1127C6.93844 11.2006 7.05244 11.25 7.17131 11.25C7.29019 11.25 7.40419 11.2006 7.48825 11.1127C7.5723 11.0248 7.61952 10.9056 7.61952 10.7812V7.96875H10.3088C10.4276 7.96875 10.5416 7.91936 10.6257 7.83146C10.7098 7.74355 10.757 7.62432 10.757 7.5C10.757 7.37568 10.7098 7.25645 10.6257 7.16854C10.5416 7.08064 10.4276 7.03125 10.3088 7.03125H7.61952V4.21875Z"
            fill="#5152FB"/>
</svg>